<?xml version="1.0" encoding="UTF-8" standalone="no"?>
<svg
   xmlns:dc="http://purl.org/dc/elements/1.1/"
   xmlns:cc="http://creativecommons.org/ns#"
   xmlns:rdf="http://www.w3.org/1999/02/22-rdf-syntax-ns#"
   xmlns:svg="http://www.w3.org/2000/svg"
   xmlns="http://www.w3.org/2000/svg"
   xmlns:sodipodi="http://sodipodi.sourceforge.net/DTD/sodipodi-0.dtd"
   xmlns:inkscape="http://www.inkscape.org/namespaces/inkscape"
   version="1.1"
   id="svg28"
   xml:space="preserve"
   width="331.60907"
   height="324.33545"
   viewBox="0 0 331.60907 324.33545"
   sodipodi:docname="psycoding_logo.svg"
   inkscape:version="1.0.2 (e86c870879, 2021-01-15)"><metadata
     id="metadata34"><rdf:RDF><cc:Work
         rdf:about=""><dc:format>image/svg+xml</dc:format><dc:type
           rdf:resource="http://purl.org/dc/dcmitype/StillImage" /><dc:title></dc:title></cc:Work></rdf:RDF></metadata><defs
     id="defs32"><clipPath
       clipPathUnits="userSpaceOnUse"
       id="clipPath46"><path
         d="M 0,465.63 H 464.147 V 0 H 0 Z"
         id="path44" /></clipPath></defs><sodipodi:namedview
     pagecolor="#ffffff"
     bordercolor="#666666"
     borderopacity="1"
     objecttolerance="10"
     gridtolerance="10"
     guidetolerance="10"
     inkscape:pageopacity="0"
     inkscape:pageshadow="2"
     inkscape:window-width="3440"
     inkscape:window-height="1400"
     id="namedview30"
     showgrid="false"
     fit-margin-top="0.5"
     fit-margin-left="0.5"
     fit-margin-right="0.5"
     fit-margin-bottom="0.5"
     inkscape:zoom="1.3838263"
     inkscape:cx="-192.1817"
     inkscape:cy="179.69437"
     inkscape:window-x="0"
     inkscape:window-y="20"
     inkscape:window-maximized="0"
     inkscape:current-layer="g40" /><g
     inkscape:groupmode="layer"
     id="layer2"
     inkscape:label="Psyco_logo 1"
     transform="translate(-143.04906,-94.638534)" /><g
     id="g36"
     inkscape:groupmode="layer"
     inkscape:label="Psyco_logo"
     transform="matrix(1.3333333,0,0,-1.3333333,-143.04906,526.20145)"><g
       id="g40"><g
         id="g42"
         clip-path="url(#clipPath46)"><g
           id="g48"
           transform="translate(210.7979,281.0301)"><path
             d="m 0,0 h -92.535 c -5.806,0 -10.513,4.707 -10.513,10.514 v 92.218 c 0,5.807 4.707,10.514 10.513,10.514 H 0 c 5.807,0 10.514,-4.707 10.514,-10.514 V 10.514 C 10.514,4.707 5.807,0 0,0"
             style="fill:#8cb93f;fill-opacity:1;fill-rule:nonzero;stroke:none"
             id="path50" /></g><g
           id="g52"
           transform="translate(344.4921,281.0301)"><path
             d="m 0,0 h -92.535 c -5.806,0 -10.514,4.707 -10.514,10.514 v 92.218 c 0,5.807 4.708,10.514 10.514,10.514 H 0 c 5.807,0 10.514,-4.707 10.514,-10.514 V 10.514 C 10.514,4.707 5.807,0 0,0"
             style="fill:#eebd1b;fill-opacity:1;fill-rule:nonzero;stroke:none"
             id="path54" /></g><g
           id="g56"
           transform="translate(210.7108,151.7745)"><path
             d="m 0,0 h -92.535 c -5.806,0 -10.514,4.707 -10.514,10.514 v 92.218 c 0,5.807 4.708,10.514 10.514,10.514 H 0 c 5.807,0 10.514,-4.707 10.514,-10.514 V 10.514 C 10.514,4.707 5.807,0 0,0"
             style="fill:#e3462e;fill-opacity:1;fill-rule:nonzero;stroke:none"
             id="path58" /></g><g
           id="g60"
           transform="translate(345.1046,151.7745)"><path
             d="m 0,0 h -92.535 c -5.806,0 -10.514,4.707 -10.514,10.514 v 92.218 c 0,5.807 4.708,10.514 10.514,10.514 H 0 c 5.807,0 10.514,-4.707 10.514,-10.514 V 10.514 C 10.514,4.707 5.807,0 0,0"
             style="fill:#38b0c8;fill-opacity:1;fill-rule:nonzero;stroke:none"
             id="path62" /></g><g
           id="g64"
           transform="translate(199.8456,363.4792)"
           style="fill:#ffffff"><path
             d="m 0,0 c -1.68,0 -3.05,1.36 -3.05,3.05 0,1.69 1.37,3.06 3.05,3.06 1.69,0 3.06,-1.37 3.06,-3.06 C 3.06,1.36 1.69,0 0,0 M 3.06,-62.39 H -73.7 v 56.1 H 3.06 Z m -21.25,68.5 c 1.69,0 3.05,-1.37 3.05,-3.06 0,-1.69 -1.36,-3.05 -3.05,-3.05 -1.69,0 -3.06,1.36 -3.06,3.05 0,1.69 1.37,3.06 3.06,3.06 m 9.03,0 c 1.69,0 3.05,-1.37 3.05,-3.06 C -6.11,1.36 -7.47,0 -9.16,0 c -1.69,0 -3.06,1.36 -3.06,3.05 0,1.69 1.37,3.06 3.06,3.06 m 12.71,7.54 h -77.74 c -3.39,0 -6.14,-2.75 -6.14,-6.14 v -69.75 c 0,-3.39 2.75,-6.14 6.14,-6.14 H 3.55 c 3.4,0 6.15,2.75 6.15,6.14 V 7.51 c 0,3.39 -2.75,6.14 -6.15,6.14"
             style="fill:#ffffff;fill-opacity:1;fill-rule:nonzero;stroke:none"
             id="path66" /></g><g
           id="g68"
           transform="translate(170.0647,347.6704)"
           style="stroke:#ffffff"><path
             d="M 0,0 -11.024,-33.869"
             style="fill:none;stroke:#ffffff;stroke-width:5.669;stroke-linecap:round;stroke-linejoin:round;stroke-miterlimit:10;stroke-dasharray:none;stroke-opacity:1"
             id="path70" /></g><g
           id="g72"
           transform="translate(175.7567,337.6533)"
           style="stroke:#ffffff"><path
             d="M 0,0 14.71,-7.689 0,-15.362"
             style="fill:none;stroke:#ffffff;stroke-width:5.669;stroke-linecap:round;stroke-linejoin:round;stroke-miterlimit:10;stroke-dasharray:none;stroke-opacity:1"
             id="path74" /></g><g
           id="g76"
           transform="translate(152.3546,322.2915)"
           style="stroke:#ffffff"><path
             d="M 0,0 -14.71,7.689 0,15.362"
             style="fill:none;stroke:#ffffff;stroke-width:5.669;stroke-linecap:round;stroke-linejoin:round;stroke-miterlimit:10;stroke-dasharray:none;stroke-opacity:1"
             id="path78" /></g><g
           id="g80"
           transform="translate(334.1524,235.7591)"
           style="fill:#ffffff"><path
             d="m 0,0 c -1.68,0 -3.05,1.36 -3.05,3.05 0,1.69 1.37,3.06 3.05,3.06 1.69,0 3.06,-1.37 3.06,-3.06 C 3.06,1.36 1.69,0 0,0 M 3.06,-62.39 H -73.7 v 56.1 H 3.06 Z m -21.25,68.5 c 1.69,0 3.05,-1.37 3.05,-3.06 0,-1.69 -1.36,-3.05 -3.05,-3.05 -1.69,0 -3.06,1.36 -3.06,3.05 0,1.69 1.37,3.06 3.06,3.06 m 9.03,0 c 1.69,0 3.05,-1.37 3.05,-3.06 C -6.11,1.36 -7.47,0 -9.16,0 c -1.69,0 -3.06,1.36 -3.06,3.05 0,1.69 1.37,3.06 3.06,3.06 m 12.71,7.54 h -77.74 c -3.39,0 -6.14,-2.75 -6.14,-6.14 v -69.75 c 0,-3.39 2.75,-6.14 6.14,-6.14 H 3.55 c 3.4,0 6.15,2.75 6.15,6.14 V 7.51 c 0,3.39 -2.75,6.14 -6.15,6.14"
             style="fill:#ffffff;fill-opacity:1;fill-rule:nonzero;stroke:none"
             id="path82" /></g><g
           id="g84"
           transform="translate(304.3649,219.954)"
           style="stroke:#ffffff"><path
             d="M 0,0 -11.024,-33.869"
             style="fill:none;stroke:#ffffff;stroke-width:5.669;stroke-linecap:round;stroke-linejoin:round;stroke-miterlimit:10;stroke-dasharray:none;stroke-opacity:1"
             id="path86" /></g><g
           id="g88"
           transform="translate(310.0569,209.9368)"
           style="stroke:#ffffff"><path
             d="M 0,0 14.71,-7.689 0,-15.362"
             style="fill:none;stroke:#ffffff;stroke-width:5.669;stroke-linecap:round;stroke-linejoin:round;stroke-miterlimit:10;stroke-dasharray:none;stroke-opacity:1"
             id="path90" /></g><g
           id="g92"
           transform="translate(286.6548,194.5751)"
           style="stroke:#ffffff"><path
             d="M 0,0 -14.71,7.689 0,15.362"
             style="fill:none;stroke:#ffffff;stroke-width:5.669;stroke-linecap:round;stroke-linejoin:round;stroke-miterlimit:10;stroke-dasharray:none;stroke-opacity:1"
             id="path94" /></g><g
           id="g96"
           transform="translate(337.4048,369.0792)"
           style="fill:#ffffff;stroke:#ffffff"><path
             d="m 0,0 v -2.05 h -3.64 c -4.36,0 -3.96,-9.5 -3.96,-25.74 0,-16.25 -26.46,-18.09 -26.46,-18.09 v -13.08 c 0,-7.01 10.52,-5.94 10.52,-5.94 l -0.44,-2.16 h -30.41 l -0.43,2.16 c 0,0 10.51,-1.07 10.51,5.94 v 13.08 c 0,0 -26.46,1.84 -26.46,18.09 0,16.24 0.4,25.74 -3.95,25.74 h -3.64 V 0 h 8.63 c 0,0 8.29,-0.27 8.29,-11.26 v -17.07 c 0,0 -0.79,-14.13 17.28,-14.13 v 35.31 c 0,0 -0.65,4.35 -4.36,4.35 h -4.64 V 0 h 27.96 v -2.8 h -4.64 c -3.72,0 -4.36,-4.35 -4.36,-4.35 v -35.31 c 18.06,0 17.28,14.13 17.28,14.13 v 17.07 C -16.92,-0.27 -8.64,0 -8.64,0 Z"
             style="fill:#ffffff;fill-opacity:1;fill-rule:nonzero;stroke:#ffffff"
             id="path98" /></g><g
           id="g100"
           transform="translate(337.4048,369.0792)"
           style="stroke:#ffffff"><path
             d="m 0,0 v -2.05 h -3.64 c -4.36,0 -3.96,-9.5 -3.96,-25.74 0,-16.25 -26.46,-18.09 -26.46,-18.09 v -13.08 c 0,-7.01 10.52,-5.94 10.52,-5.94 l -0.44,-2.16 h -30.41 l -0.43,2.16 c 0,0 10.51,-1.07 10.51,5.94 v 13.08 c 0,0 -26.46,1.84 -26.46,18.09 0,16.24 0.4,25.74 -3.95,25.74 h -3.64 V 0 h 8.63 c 0,0 8.29,-0.27 8.29,-11.26 v -17.07 c 0,0 -0.79,-14.13 17.28,-14.13 v 35.31 c 0,0 -0.65,4.35 -4.36,4.35 h -4.64 V 0 h 27.96 v -2.8 h -4.64 c -3.72,0 -4.36,-4.35 -4.36,-4.35 v -35.31 c 18.06,0 17.28,14.13 17.28,14.13 v 17.07 C -16.92,-0.27 -8.64,0 -8.64,0 Z"
             style="fill:none;stroke:#ffffff;stroke-width:1;stroke-linecap:butt;stroke-linejoin:miter;stroke-miterlimit:10;stroke-dasharray:none;stroke-opacity:1"
             id="path102" /></g><g
           id="g104"
           transform="translate(203.6235,241.9277)"><path
             d="m 0,0 v -2.05 h -3.64 c -4.36,0 -3.96,-9.5 -3.96,-25.74 0,-16.25 -26.46,-18.09 -26.46,-18.09 v -13.08 c 0,-7.01 10.52,-5.94 10.52,-5.94 l -0.44,-2.16 h -30.41 l -0.43,2.16 c 0,0 10.51,-1.07 10.51,5.94 v 13.08 c 0,0 -26.46,1.84 -26.46,18.09 0,16.24 0.4,25.74 -3.95,25.74 h -3.64 V 0 h 8.63 c 0,0 8.29,-0.27 8.29,-11.26 v -17.07 c 0,0 -0.79,-14.13 17.28,-14.13 v 35.31 c 0,0 -0.65,4.35 -4.36,4.35 h -4.64 V 0 h 27.96 v -2.8 h -4.64 c -3.72,0 -4.36,-4.35 -4.36,-4.35 v -35.31 c 18.06,0 17.28,14.13 17.28,14.13 v 17.07 C -16.92,-0.27 -8.64,0 -8.64,0 Z"
             style="fill:#221f1f;fill-opacity:1;fill-rule:nonzero;stroke:none"
             id="path106" /></g><g
           id="g108"
           transform="translate(203.6235,241.9277)"
           style="fill:#ffffff;stroke:#ffffff"><path
             d="m 0,0 v -2.05 h -3.64 c -4.36,0 -3.96,-9.5 -3.96,-25.74 0,-16.25 -26.46,-18.09 -26.46,-18.09 v -13.08 c 0,-7.01 10.52,-5.94 10.52,-5.94 l -0.44,-2.16 h -30.41 l -0.43,2.16 c 0,0 10.51,-1.07 10.51,5.94 v 13.08 c 0,0 -26.46,1.84 -26.46,18.09 0,16.24 0.4,25.74 -3.95,25.74 h -3.64 V 0 h 8.63 c 0,0 8.29,-0.27 8.29,-11.26 v -17.07 c 0,0 -0.79,-14.13 17.28,-14.13 v 35.31 c 0,0 -0.65,4.35 -4.36,4.35 h -4.64 V 0 h 27.96 v -2.8 h -4.64 c -3.72,0 -4.36,-4.35 -4.36,-4.35 v -35.31 c 18.06,0 17.28,14.13 17.28,14.13 v 17.07 C -16.92,-0.27 -8.64,0 -8.64,0 Z"
             style="fill:#ffffff;stroke:#ffffff;stroke-width:1;stroke-linecap:butt;stroke-linejoin:miter;stroke-miterlimit:10;stroke-dasharray:none;stroke-opacity:1"
             id="path110" /></g></g></g></g></svg>
